<?xml version="1.0" encoding="UTF-8" standalone="no"?>
<!DOCTYPE svg PUBLIC "-//W3C//DTD SVG 1.1//EN"
 "http://www.w3.org/Graphics/SVG/1.1/DTD/svg11.dtd">
<!-- Generated by graphviz version 2.44.1 (20200629.0846)
 -->
<!-- Title: dependencies Pages: 1 -->
<svg width="504pt" height="211pt"
 viewBox="0.00 0.00 504.00 211.00" xmlns="http://www.w3.org/2000/svg" xmlns:xlink="http://www.w3.org/1999/xlink">
<g id="graph0" class="graph" transform="scale(1 1) rotate(0) translate(4 207)">
<title>dependencies</title>
<polygon fill="white" stroke="transparent" points="-4,4 -4,-207 500,-207 500,4 -4,4"/>
<text text-anchor="start" x="227.01" y="-42.4" font-family="sans-serif" font-weight="bold" font-size="14.00">Legend</text>
<polygon fill="#ffffb3" stroke="transparent" points="14,-10 14,-30 34,-30 34,-10 14,-10"/>
<text text-anchor="start" x="37.63" y="-15.4" font-family="sans-serif" font-size="14.00"> &#160;Declarations</text>
<polygon fill="#8dd3c7" stroke="transparent" points="127,-10 127,-30 147,-30 147,-10 127,-10"/>
<text text-anchor="start" x="150.73" y="-15.4" font-family="sans-serif" font-size="14.00"> &#160;Module</text>
<polygon fill="#80b1d3" stroke="transparent" points="213,-10 213,-30 233,-30 233,-10 213,-10"/>
<text text-anchor="start" x="236.78" y="-15.4" font-family="sans-serif" font-size="14.00"> &#160;Bootstrap</text>
<polygon fill="#fdb462" stroke="transparent" points="310,-10 310,-30 330,-30 330,-10 310,-10"/>
<text text-anchor="start" x="333.67" y="-15.4" font-family="sans-serif" font-size="14.00"> &#160;Providers</text>
<polygon fill="#fb8072" stroke="transparent" points="406,-10 406,-30 426,-30 426,-10 406,-10"/>
<text text-anchor="start" x="429.73" y="-15.4" font-family="sans-serif" font-size="14.00"> &#160;Exports</text>
<g id="clust1" class="cluster">
<title>cluster_UsersModule</title>
<polygon fill="none" stroke="black" stroke-dasharray="1,5" points="64.5,-70 64.5,-195 431.5,-195 431.5,-70 64.5,-70"/>
</g>
<g id="clust2" class="cluster">
<title>cluster_UsersModule_declarations</title>
<polygon fill="none" stroke="black" points="293.5,-78 293.5,-130 423.5,-130 423.5,-78 293.5,-78"/>
</g>
<g id="clust4" class="cluster">
<title>cluster_UsersModule_imports</title>
<polygon fill="none" stroke="black" points="72.5,-78 72.5,-130 285.5,-130 285.5,-78 72.5,-78"/>
</g>
<!-- UsersComponent -->
<g id="node1" class="node">
<title>UsersComponent</title>
<polygon fill="#ffffb3" stroke="black" points="415.2,-122 301.8,-122 301.8,-86 415.2,-86 415.2,-122"/>
<text text-anchor="middle" x="358.5" y="-99.8" font-family="Times,serif" font-size="14.00">UsersComponent</text>
</g>
<!-- UsersModule -->
<g id="node2" class="node">
<title>UsersModule</title>
<polygon fill="#8dd3c7" stroke="black" points="280.42,-187 277.42,-191 256.42,-191 253.42,-187 188.58,-187 188.58,-151 280.42,-151 280.42,-187"/>
<text text-anchor="middle" x="234.5" y="-164.8" font-family="Times,serif" font-size="14.00">UsersModule</text>
</g>
<!-- UsersComponent&#45;&gt;UsersModule -->
<g id="edge1" class="edge">
<title>UsersComponent&#45;&gt;UsersModule</title>
<path fill="none" stroke="black" d="M358.5,-122.11C358.5,-141.34 358.5,-169 358.5,-169 358.5,-169 290.32,-169 290.32,-169"/>
<polygon fill="black" stroke="black" points="290.32,-165.5 280.32,-169 290.32,-172.5 290.32,-165.5"/>
</g>
<!-- GridModule -->
<g id="node3" class="node">
<title>GridModule</title>
<polygon fill="#8dd3c7" stroke="black" points="277.21,-122 274.21,-126 253.21,-126 250.21,-122 191.79,-122 191.79,-86 277.21,-86 277.21,-122"/>
<text text-anchor="middle" x="234.5" y="-99.8" font-family="Times,serif" font-size="14.00">GridModule</text>
</g>
<!-- GridModule&#45;&gt;UsersModule -->
<g id="edge2" class="edge">
<title>GridModule&#45;&gt;UsersModule</title>
<path fill="none" stroke="black" d="M234.5,-122.11C234.5,-122.11 234.5,-140.99 234.5,-140.99"/>
<polygon fill="black" stroke="black" points="231,-140.99 234.5,-150.99 238,-140.99 231,-140.99"/>
</g>
<!-- HomeModule -->
<g id="node4" class="node">
<title>HomeModule</title>
<polygon fill="#8dd3c7" stroke="black" points="174.26,-122 171.26,-126 150.26,-126 147.26,-122 80.74,-122 80.74,-86 174.26,-86 174.26,-122"/>
<text text-anchor="middle" x="127.5" y="-99.8" font-family="Times,serif" font-size="14.00">HomeModule</text>
</g>
<!-- HomeModule&#45;&gt;UsersModule -->
<g id="edge3" class="edge">
<title>HomeModule&#45;&gt;UsersModule</title>
<path fill="none" stroke="black" d="M127.5,-122.11C127.5,-141.34 127.5,-169 127.5,-169 127.5,-169 178.5,-169 178.5,-169"/>
<polygon fill="black" stroke="black" points="178.5,-172.5 188.5,-169 178.5,-165.5 178.5,-172.5"/>
</g>
</g>
</svg>
