<?xml version="1.0" encoding="UTF-8" standalone="no"?>
<!DOCTYPE svg PUBLIC "-//W3C//DTD SVG 1.1//EN"
 "http://www.w3.org/Graphics/SVG/1.1/DTD/svg11.dtd">
<!-- Generated by graphviz version 2.44.1 (20200629.0846)
 -->
<!-- Title: dependencies Pages: 1 -->
<svg width="877pt" height="211pt"
 viewBox="0.00 0.00 877.00 211.00" xmlns="http://www.w3.org/2000/svg" xmlns:xlink="http://www.w3.org/1999/xlink">
<g id="graph0" class="graph" transform="scale(1 1) rotate(0) translate(4 207)">
<title>dependencies</title>
<polygon fill="white" stroke="transparent" points="-4,4 -4,-207 873,-207 873,4 -4,4"/>
<text text-anchor="start" x="413.51" y="-42.4" font-family="sans-serif" font-weight="bold" font-size="14.00">Legend</text>
<polygon fill="#ffffb3" stroke="transparent" points="200.5,-10 200.5,-30 220.5,-30 220.5,-10 200.5,-10"/>
<text text-anchor="start" x="224.13" y="-15.4" font-family="sans-serif" font-size="14.00"> &#160;Declarations</text>
<polygon fill="#8dd3c7" stroke="transparent" points="313.5,-10 313.5,-30 333.5,-30 333.5,-10 313.5,-10"/>
<text text-anchor="start" x="337.23" y="-15.4" font-family="sans-serif" font-size="14.00"> &#160;Module</text>
<polygon fill="#80b1d3" stroke="transparent" points="399.5,-10 399.5,-30 419.5,-30 419.5,-10 399.5,-10"/>
<text text-anchor="start" x="423.28" y="-15.4" font-family="sans-serif" font-size="14.00"> &#160;Bootstrap</text>
<polygon fill="#fdb462" stroke="transparent" points="496.5,-10 496.5,-30 516.5,-30 516.5,-10 496.5,-10"/>
<text text-anchor="start" x="520.17" y="-15.4" font-family="sans-serif" font-size="14.00"> &#160;Providers</text>
<polygon fill="#fb8072" stroke="transparent" points="592.5,-10 592.5,-30 612.5,-30 612.5,-10 592.5,-10"/>
<text text-anchor="start" x="616.23" y="-15.4" font-family="sans-serif" font-size="14.00"> &#160;Exports</text>
<g id="clust1" class="cluster">
<title>cluster_AuthModule</title>
<polygon fill="none" stroke="black" stroke-dasharray="1,5" points="8,-70 8,-195 861,-195 861,-70 8,-70"/>
</g>
<g id="clust2" class="cluster">
<title>cluster_AuthModule_declarations</title>
<polygon fill="none" stroke="black" points="16,-78 16,-130 853,-130 853,-78 16,-78"/>
</g>
<!-- LoginComponent -->
<g id="node1" class="node">
<title>LoginComponent</title>
<polygon fill="#ffffb3" stroke="black" points="845.28,-122 730.72,-122 730.72,-86 845.28,-86 845.28,-122"/>
<text text-anchor="middle" x="788" y="-99.8" font-family="Times,serif" font-size="14.00">LoginComponent</text>
</g>
<!-- AuthModule -->
<g id="node6" class="node">
<title>AuthModule</title>
<polygon fill="#8dd3c7" stroke="black" points="455.55,-187 452.55,-191 431.55,-191 428.55,-187 368.45,-187 368.45,-151 455.55,-151 455.55,-187"/>
<text text-anchor="middle" x="412" y="-164.8" font-family="Times,serif" font-size="14.00">AuthModule</text>
</g>
<!-- LoginComponent&#45;&gt;AuthModule -->
<g id="edge1" class="edge">
<title>LoginComponent&#45;&gt;AuthModule</title>
<path fill="none" stroke="black" d="M788,-122.28C788,-143.32 788,-175 788,-175 788,-175 465.87,-175 465.87,-175"/>
<polygon fill="black" stroke="black" points="465.87,-171.5 455.87,-175 465.87,-178.5 465.87,-171.5"/>
</g>
<!-- OfficeOAuthCallbackComponent -->
<g id="node2" class="node">
<title>OfficeOAuthCallbackComponent</title>
<polygon fill="#ffffb3" stroke="black" points="712.45,-122 507.55,-122 507.55,-86 712.45,-86 712.45,-122"/>
<text text-anchor="middle" x="610" y="-99.8" font-family="Times,serif" font-size="14.00">OfficeOAuthCallbackComponent</text>
</g>
<!-- OfficeOAuthCallbackComponent&#45;&gt;AuthModule -->
<g id="edge2" class="edge">
<title>OfficeOAuthCallbackComponent&#45;&gt;AuthModule</title>
<path fill="none" stroke="black" d="M610,-122.02C610,-139.37 610,-163 610,-163 610,-163 465.94,-163 465.94,-163"/>
<polygon fill="black" stroke="black" points="465.94,-159.5 455.94,-163 465.94,-166.5 465.94,-159.5"/>
</g>
<!-- OfficeOAuthComponent -->
<g id="node3" class="node">
<title>OfficeOAuthComponent</title>
<polygon fill="#ffffb3" stroke="black" points="489.68,-122 334.32,-122 334.32,-86 489.68,-86 489.68,-122"/>
<text text-anchor="middle" x="412" y="-99.8" font-family="Times,serif" font-size="14.00">OfficeOAuthComponent</text>
</g>
<!-- OfficeOAuthComponent&#45;&gt;AuthModule -->
<g id="edge3" class="edge">
<title>OfficeOAuthComponent&#45;&gt;AuthModule</title>
<path fill="none" stroke="black" d="M412,-122.11C412,-122.11 412,-140.99 412,-140.99"/>
<polygon fill="black" stroke="black" points="408.5,-140.99 412,-150.99 415.5,-140.99 408.5,-140.99"/>
</g>
<!-- RegisterComponent -->
<g id="node4" class="node">
<title>RegisterComponent</title>
<polygon fill="#ffffb3" stroke="black" points="315.98,-122 188.02,-122 188.02,-86 315.98,-86 315.98,-122"/>
<text text-anchor="middle" x="252" y="-99.8" font-family="Times,serif" font-size="14.00">RegisterComponent</text>
</g>
<!-- RegisterComponent&#45;&gt;AuthModule -->
<g id="edge4" class="edge">
<title>RegisterComponent&#45;&gt;AuthModule</title>
<path fill="none" stroke="black" d="M252,-122.02C252,-139.37 252,-163 252,-163 252,-163 358.28,-163 358.28,-163"/>
<polygon fill="black" stroke="black" points="358.28,-166.5 368.28,-163 358.28,-159.5 358.28,-166.5"/>
</g>
<!-- VerifyAuthComponent -->
<g id="node5" class="node">
<title>VerifyAuthComponent</title>
<polygon fill="#ffffb3" stroke="black" points="169.86,-122 24.14,-122 24.14,-86 169.86,-86 169.86,-122"/>
<text text-anchor="middle" x="97" y="-99.8" font-family="Times,serif" font-size="14.00">VerifyAuthComponent</text>
</g>
<!-- VerifyAuthComponent&#45;&gt;AuthModule -->
<g id="edge5" class="edge">
<title>VerifyAuthComponent&#45;&gt;AuthModule</title>
<path fill="none" stroke="black" d="M97,-122.28C97,-143.32 97,-175 97,-175 97,-175 358.2,-175 358.2,-175"/>
<polygon fill="black" stroke="black" points="358.2,-178.5 368.2,-175 358.2,-171.5 358.2,-178.5"/>
</g>
</g>
</svg>
