<?xml version="1.0" encoding="UTF-8" standalone="no"?>
<!DOCTYPE svg PUBLIC "-//W3C//DTD SVG 1.1//EN"
 "http://www.w3.org/Graphics/SVG/1.1/DTD/svg11.dtd">
<!-- Generated by graphviz version 2.44.1 (20200629.0846)
 -->
<!-- Title: dependencies Pages: 1 -->
<svg width="2381pt" height="284pt"
 viewBox="0.00 0.00 2381.00 284.00" xmlns="http://www.w3.org/2000/svg" xmlns:xlink="http://www.w3.org/1999/xlink">
<g id="graph0" class="graph" transform="scale(1 1) rotate(0) translate(4 280)">
<title>dependencies</title>
<polygon fill="white" stroke="transparent" points="-4,4 -4,-280 2377,-280 2377,4 -4,4"/>
<text text-anchor="start" x="1165.51" y="-42.4" font-family="sans-serif" font-weight="bold" font-size="14.00">Legend</text>
<polygon fill="#ffffb3" stroke="transparent" points="952.5,-10 952.5,-30 972.5,-30 972.5,-10 952.5,-10"/>
<text text-anchor="start" x="976.13" y="-15.4" font-family="sans-serif" font-size="14.00"> &#160;Declarations</text>
<polygon fill="#8dd3c7" stroke="transparent" points="1065.5,-10 1065.5,-30 1085.5,-30 1085.5,-10 1065.5,-10"/>
<text text-anchor="start" x="1089.23" y="-15.4" font-family="sans-serif" font-size="14.00"> &#160;Module</text>
<polygon fill="#80b1d3" stroke="transparent" points="1151.5,-10 1151.5,-30 1171.5,-30 1171.5,-10 1151.5,-10"/>
<text text-anchor="start" x="1175.28" y="-15.4" font-family="sans-serif" font-size="14.00"> &#160;Bootstrap</text>
<polygon fill="#fdb462" stroke="transparent" points="1248.5,-10 1248.5,-30 1268.5,-30 1268.5,-10 1248.5,-10"/>
<text text-anchor="start" x="1272.17" y="-15.4" font-family="sans-serif" font-size="14.00"> &#160;Providers</text>
<polygon fill="#fb8072" stroke="transparent" points="1344.5,-10 1344.5,-30 1364.5,-30 1364.5,-10 1344.5,-10"/>
<text text-anchor="start" x="1368.23" y="-15.4" font-family="sans-serif" font-size="14.00"> &#160;Exports</text>
<g id="clust1" class="cluster">
<title>cluster_GridModule</title>
<polygon fill="none" stroke="black" stroke-dasharray="1,5" points="8,-70 8,-268 2365,-268 2365,-70 8,-70"/>
</g>
<g id="clust17" class="cluster">
<title>cluster_GridModule_exports</title>
<polygon fill="none" stroke="black" points="1153,-208 1153,-260 1279,-260 1279,-208 1153,-208"/>
</g>
<g id="clust2" class="cluster">
<title>cluster_GridModule_declarations</title>
<polygon fill="none" stroke="black" points="16,-78 16,-130 2357,-130 2357,-78 16,-78"/>
</g>
<!-- GridComponent -->
<g id="node1" class="node">
<title>GridComponent</title>
<polygon fill="#ffffb3" stroke="black" points="2349.49,-122 2242.51,-122 2242.51,-86 2349.49,-86 2349.49,-122"/>
<text text-anchor="middle" x="2296" y="-99.8" font-family="Times,serif" font-size="14.00">GridComponent</text>
</g>
<!-- GridModule -->
<g id="node14" class="node">
<title>GridModule</title>
<polygon fill="#8dd3c7" stroke="black" points="1258.71,-187 1255.71,-191 1234.71,-191 1231.71,-187 1173.29,-187 1173.29,-151 1258.71,-151 1258.71,-187"/>
<text text-anchor="middle" x="1216" y="-164.8" font-family="Times,serif" font-size="14.00">GridModule</text>
</g>
<!-- GridComponent&#45;&gt;GridModule -->
<g id="edge1" class="edge">
<title>GridComponent&#45;&gt;GridModule</title>
<path fill="none" stroke="black" d="M2296,-122.09C2296,-145.13 2296,-182 2296,-182 2296,-182 1268.67,-182 1268.67,-182"/>
<polygon fill="black" stroke="black" points="1268.67,-178.5 1258.67,-182 1268.67,-185.5 1268.67,-178.5"/>
</g>
<!-- GridHeaderComponent -->
<g id="node2" class="node">
<title>GridHeaderComponent</title>
<polygon fill="#ffffb3" stroke="black" points="2224.9,-122 2077.1,-122 2077.1,-86 2224.9,-86 2224.9,-122"/>
<text text-anchor="middle" x="2151" y="-99.8" font-family="Times,serif" font-size="14.00">GridHeaderComponent</text>
</g>
<!-- GridHeaderComponent&#45;&gt;GridModule -->
<g id="edge2" class="edge">
<title>GridHeaderComponent&#45;&gt;GridModule</title>
<path fill="none" stroke="black" d="M2151,-122.04C2151,-143.66 2151,-177 2151,-177 2151,-177 1268.6,-177 1268.6,-177"/>
<polygon fill="black" stroke="black" points="1268.6,-173.5 1258.6,-177 1268.6,-180.5 1268.6,-173.5"/>
</g>
<!-- MsCalendarComponent -->
<g id="node3" class="node">
<title>MsCalendarComponent</title>
<polygon fill="#ffffb3" stroke="black" points="2058.75,-122 1909.25,-122 1909.25,-86 2058.75,-86 2058.75,-122"/>
<text text-anchor="middle" x="1984" y="-99.8" font-family="Times,serif" font-size="14.00">MsCalendarComponent</text>
</g>
<!-- MsCalendarComponent&#45;&gt;GridModule -->
<g id="edge3" class="edge">
<title>MsCalendarComponent&#45;&gt;GridModule</title>
<path fill="none" stroke="black" d="M1984,-122.22C1984,-142.37 1984,-172 1984,-172 1984,-172 1268.66,-172 1268.66,-172"/>
<polygon fill="black" stroke="black" points="1268.66,-168.5 1258.66,-172 1268.66,-175.5 1268.66,-168.5"/>
</g>
<!-- MsMailComponent -->
<g id="node4" class="node">
<title>MsMailComponent</title>
<polygon fill="#ffffb3" stroke="black" points="1890.66,-122 1765.34,-122 1765.34,-86 1890.66,-86 1890.66,-122"/>
<text text-anchor="middle" x="1828" y="-99.8" font-family="Times,serif" font-size="14.00">MsMailComponent</text>
</g>
<!-- MsMailComponent&#45;&gt;GridModule -->
<g id="edge4" class="edge">
<title>MsMailComponent&#45;&gt;GridModule</title>
<path fill="none" stroke="black" d="M1828,-122.22C1828,-140.83 1828,-167 1828,-167 1828,-167 1269.03,-167 1269.03,-167"/>
<polygon fill="black" stroke="black" points="1269.03,-163.5 1259.03,-167 1269.03,-170.5 1269.03,-163.5"/>
</g>
<!-- RdSubredditWatcherComponent -->
<g id="node5" class="node">
<title>RdSubredditWatcherComponent</title>
<polygon fill="#ffffb3" stroke="black" points="1746.52,-122 1547.48,-122 1547.48,-86 1746.52,-86 1746.52,-122"/>
<text text-anchor="middle" x="1647" y="-99.8" font-family="Times,serif" font-size="14.00">RdSubredditWatcherComponent</text>
</g>
<!-- RdSubredditWatcherComponent&#45;&gt;GridModule -->
<g id="edge5" class="edge">
<title>RdSubredditWatcherComponent&#45;&gt;GridModule</title>
<path fill="none" stroke="black" d="M1647,-122.03C1647,-139.06 1647,-162 1647,-162 1647,-162 1268.9,-162 1268.9,-162"/>
<polygon fill="black" stroke="black" points="1268.9,-158.5 1258.9,-162 1268.9,-165.5 1268.9,-158.5"/>
</g>
<!-- RefreshRateInputDialogComponent -->
<g id="node6" class="node">
<title>RefreshRateInputDialogComponent</title>
<polygon fill="#ffffb3" stroke="black" points="1529.17,-122 1310.83,-122 1310.83,-86 1529.17,-86 1529.17,-122"/>
<text text-anchor="middle" x="1420" y="-99.8" font-family="Times,serif" font-size="14.00">RefreshRateInputDialogComponent</text>
</g>
<!-- RefreshRateInputDialogComponent&#45;&gt;GridModule -->
<g id="edge6" class="edge">
<title>RefreshRateInputDialogComponent&#45;&gt;GridModule</title>
<path fill="none" stroke="black" d="M1420,-122.24C1420,-137.57 1420,-157 1420,-157 1420,-157 1268.77,-157 1268.77,-157"/>
<polygon fill="black" stroke="black" points="1268.77,-153.5 1258.77,-157 1268.77,-160.5 1268.77,-153.5"/>
</g>
<!-- SpotifyArtistComponent -->
<g id="node7" class="node">
<title>SpotifyArtistComponent</title>
<polygon fill="#ffffb3" stroke="black" points="1293.44,-122 1138.56,-122 1138.56,-86 1293.44,-86 1293.44,-122"/>
<text text-anchor="middle" x="1216" y="-99.8" font-family="Times,serif" font-size="14.00">SpotifyArtistComponent</text>
</g>
<!-- SpotifyArtistComponent&#45;&gt;GridModule -->
<g id="edge7" class="edge">
<title>SpotifyArtistComponent&#45;&gt;GridModule</title>
<path fill="none" stroke="black" d="M1216,-122.11C1216,-122.11 1216,-140.99 1216,-140.99"/>
<polygon fill="black" stroke="black" points="1212.5,-140.99 1216,-150.99 1219.5,-140.99 1212.5,-140.99"/>
</g>
<!-- TtvStreamWatcherComponent -->
<g id="node8" class="node">
<title>TtvStreamWatcherComponent</title>
<polygon fill="#ffffb3" stroke="black" points="1120.84,-122 933.16,-122 933.16,-86 1120.84,-86 1120.84,-122"/>
<text text-anchor="middle" x="1027" y="-99.8" font-family="Times,serif" font-size="14.00">TtvStreamWatcherComponent</text>
</g>
<!-- TtvStreamWatcherComponent&#45;&gt;GridModule -->
<g id="edge8" class="edge">
<title>TtvStreamWatcherComponent&#45;&gt;GridModule</title>
<path fill="none" stroke="black" d="M1027,-122.24C1027,-137.57 1027,-157 1027,-157 1027,-157 1163.11,-157 1163.11,-157"/>
<polygon fill="black" stroke="black" points="1163.11,-160.5 1173.11,-157 1163.11,-153.5 1163.11,-160.5"/>
</g>
<!-- TtvUserWatcherComponent -->
<g id="node9" class="node">
<title>TtvUserWatcherComponent</title>
<polygon fill="#ffffb3" stroke="black" points="915.11,-122 740.89,-122 740.89,-86 915.11,-86 915.11,-122"/>
<text text-anchor="middle" x="828" y="-99.8" font-family="Times,serif" font-size="14.00">TtvUserWatcherComponent</text>
</g>
<!-- TtvUserWatcherComponent&#45;&gt;GridModule -->
<g id="edge9" class="edge">
<title>TtvUserWatcherComponent&#45;&gt;GridModule</title>
<path fill="none" stroke="black" d="M828,-122.03C828,-139.06 828,-162 828,-162 828,-162 1163.37,-162 1163.37,-162"/>
<polygon fill="black" stroke="black" points="1163.37,-165.5 1173.37,-162 1163.37,-158.5 1163.37,-165.5"/>
</g>
<!-- WeatherComponent -->
<g id="node10" class="node">
<title>WeatherComponent</title>
<polygon fill="#ffffb3" stroke="black" points="722.24,-122 593.76,-122 593.76,-86 722.24,-86 722.24,-122"/>
<text text-anchor="middle" x="658" y="-99.8" font-family="Times,serif" font-size="14.00">WeatherComponent</text>
</g>
<!-- WeatherComponent&#45;&gt;GridModule -->
<g id="edge10" class="edge">
<title>WeatherComponent&#45;&gt;GridModule</title>
<path fill="none" stroke="black" d="M658,-122.22C658,-140.83 658,-167 658,-167 658,-167 1163.14,-167 1163.14,-167"/>
<polygon fill="black" stroke="black" points="1163.14,-170.5 1173.14,-167 1163.14,-163.5 1163.14,-170.5"/>
</g>
<!-- WidgetRenderDirective -->
<g id="node11" class="node">
<title>WidgetRenderDirective</title>
<polygon fill="#ffffb3" stroke="black" points="575.72,-122 426.28,-122 426.28,-86 575.72,-86 575.72,-122"/>
<text text-anchor="middle" x="501" y="-99.8" font-family="Times,serif" font-size="14.00">WidgetRenderDirective</text>
</g>
<!-- WidgetRenderDirective&#45;&gt;GridModule -->
<g id="edge11" class="edge">
<title>WidgetRenderDirective&#45;&gt;GridModule</title>
<path fill="none" stroke="black" d="M501,-122.22C501,-142.37 501,-172 501,-172 501,-172 1163.15,-172 1163.15,-172"/>
<polygon fill="black" stroke="black" points="1163.15,-175.5 1173.15,-172 1163.15,-168.5 1163.15,-175.5"/>
</g>
<!-- YtChannelWatcherComponent -->
<g id="node12" class="node">
<title>YtChannelWatcherComponent</title>
<polygon fill="#ffffb3" stroke="black" points="407.9,-122 218.1,-122 218.1,-86 407.9,-86 407.9,-122"/>
<text text-anchor="middle" x="313" y="-99.8" font-family="Times,serif" font-size="14.00">YtChannelWatcherComponent</text>
</g>
<!-- YtChannelWatcherComponent&#45;&gt;GridModule -->
<g id="edge12" class="edge">
<title>YtChannelWatcherComponent&#45;&gt;GridModule</title>
<path fill="none" stroke="black" d="M313,-122.04C313,-143.66 313,-177 313,-177 313,-177 1163.36,-177 1163.36,-177"/>
<polygon fill="black" stroke="black" points="1163.36,-180.5 1173.36,-177 1163.36,-173.5 1163.36,-180.5"/>
</g>
<!-- YtVideoWatcherComponent -->
<g id="node13" class="node">
<title>YtVideoWatcherComponent</title>
<polygon fill="#ffffb3" stroke="black" points="200.45,-122 23.55,-122 23.55,-86 200.45,-86 200.45,-122"/>
<text text-anchor="middle" x="112" y="-99.8" font-family="Times,serif" font-size="14.00">YtVideoWatcherComponent</text>
</g>
<!-- YtVideoWatcherComponent&#45;&gt;GridModule -->
<g id="edge13" class="edge">
<title>YtVideoWatcherComponent&#45;&gt;GridModule</title>
<path fill="none" stroke="black" d="M112,-122.09C112,-145.13 112,-182 112,-182 112,-182 1163.06,-182 1163.06,-182"/>
<polygon fill="black" stroke="black" points="1163.06,-185.5 1173.06,-182 1163.06,-178.5 1163.06,-185.5"/>
</g>
<!-- GridComponent  -->
<g id="node15" class="node">
<title>GridComponent </title>
<polygon fill="#fb8072" stroke="black" points="1271.49,-252 1160.51,-252 1160.51,-216 1271.49,-216 1271.49,-252"/>
<text text-anchor="middle" x="1216" y="-229.8" font-family="Times,serif" font-size="14.00">GridComponent </text>
</g>
<!-- GridModule&#45;&gt;GridComponent  -->
<g id="edge14" class="edge">
<title>GridModule&#45;&gt;GridComponent </title>
<path fill="none" stroke="black" stroke-dasharray="5,2" d="M1216,-187.11C1216,-187.11 1216,-205.99 1216,-205.99"/>
<polygon fill="black" stroke="black" points="1212.5,-205.99 1216,-215.99 1219.5,-205.99 1212.5,-205.99"/>
</g>
</g>
</svg>
